<?xml version="1.0" standalone="no"?>
<!DOCTYPE svg PUBLIC "-//W3C//DTD SVG 20010904//EN"
 "http://www.w3.org/TR/2001/REC-SVG-20010904/DTD/svg10.dtd">
<svg version="1.0" xmlns="http://www.w3.org/2000/svg"
 width="55.000000pt" height="52.000000pt" viewBox="0 0 55.000000 52.000000"
 preserveAspectRatio="xMidYMid meet">
<metadata>
Created by potrace 1.10, written by Peter Selinger 2001-2011
</metadata>
<g transform="translate(0.000000,52.000000) scale(0.100000,-0.100000)"
fill="#000000" stroke="none">
<path d="M196 490 c-47 -15 -92 -51 -127 -103 -31 -46 -34 -56 -34 -127 0 -72
3 -81 34 -128 42 -60 98 -99 157 -108 102 -15 185 22 244 108 45 65 53 154 21
221 -24 50 -72 102 -115 124 -36 19 -139 26 -180 13z m137 -21 c21 -6 57 -27
79 -47 103 -93 103 -231 0 -324 -85 -76 -199 -76 -284 0 -101 91 -103 227 -5
320 58 55 131 73 210 51z"/>
<path d="M228 350 c-34 -26 -43 -60 -17 -60 10 0 19 6 19 14 0 22 28 39 55 32
29 -7 35 -46 9 -67 -17 -14 -44 -62 -44 -79 0 -5 7 -10 15 -10 8 0 15 7 15 15
0 8 14 30 30 48 42 49 40 91 -7 116 -31 16 -47 14 -75 -9z"/>
<path d="M250 141 c0 -15 6 -21 21 -21 14 0 19 5 17 17 -5 26 -38 29 -38 4z"/>
</g>
</svg>
